# xmcd
#
# Track frame offsets: 
#        150
#        21212
#        43472
#        66562
#        83260
#        100777
#        111860
#        131015
#        146340
#
# Disc length: 2164 seconds
#
# Revision: 7
# Processed by: cddbd v1.5.2PL0 Copyright (c) Steve Scherf et al.
# Submitted via: ExactAudioCopyFreeDBPlugin 1.0
#
DISCID=79087209
DTITLE=Аквариум - Пси
DYEAR=1999
DGENRE=Rock
TTITLE0=Имя моей тоски
TTITLE1=Луна успокой меня
TTITLE2=Сварог
TTITLE3=Телохранитель
TTITLE4=Пока несут сакэ
TTITLE5=Сын плотника
TTITLE6=Стоп машина
TTITLE7=Маша и медведь
TTITLE8=Цветы Йошивары
EXTD=YEAR: 1999 ID3G: 17
EXTT0=
EXTT1=
EXTT2=
EXTT3=
EXTT4=
EXTT5=
EXTT6=
EXTT7=
EXTT8=
PLAYORDER=
